/* XPM */
static char *ceda174d821e4489ee05657b83fe321bBspQN61GqBFmUcV5[] = {
/* columns rows colors chars-per-pixel */
"32 32 10 1 ",
"  c #473737",
". c #465739",
"X c #A46E1A",
"o c #9A675A",
"O c #AB7856",
"+ c #77D64C",
"@ c #F6B62E",
"# c #B49144",
"$ c #AAF376",
"% c #EACE6D",
/* pixels */
"++++++++++++++$$++++++++++++++++",
"++++++++++++++$$++++++++++++++++",
"++++++++++++++++$$++++++$$++++++",
"++++++++++++++++$$++++++$$++++++",
"++++++++++++++++$$++++++$$++$$++",
"++++++++++++++++$$++++++$$++$$++",
"++++++$$++++++  @@@@@@@@++++$$++",
"++++++$$++++++  @@@@@@@@++++$$++",
"++++++$$++++++  @@@@@@@@%%++++++",
"++++++$$++++++  @@@@@@@@%%++++++",
"++++++++++++++  ####@@%%XX++++++",
"++++++++++++++  ####@@%%XX++++++",
"++++++++++++++  ++++%%XX++++++++",
"++++++++++++++  ++++%%XX++++++++",
"++++++$$++++++OO++++XXXX@@@@@@##",
"++++++$$++++++OO++++XXXX@@@@@@##",
"$$++++++$$++++OO++++XXXX####++++",
"$$++++++$$++++OO++++XXXX####++++",
"$$++++++$$++++  ++++++++++++++++",
"$$++++++$$++++  ++++++++++++++++",
"++++++++++++++  $$++++++++++++++",
"++++++++++++++  $$++++++++++++++",
"++++++++....oo##oo++++++++++++++",
"++++++++....oo##oo++++++++++++++",
"++++......oooooo####++++$$++++++",
"++++......oooooo####++++$$++++++",
"$$++++++++..oo..##++++$$++++++++",
"$$++++++++..oo..##++++$$++++++++",
"++$$++++++++++++++++++$$++++++++",
"++$$++++++++++++++++++$$++++++++",
"++$$++++++++++++++++++++++++++++",
"++$$++++++++++++++++++++++++++++"
};
