/* XPM */
static char *c0b633087f5244439604b6c106ef1760EIanHk0rqABeVb86[] = {
/* columns rows colors chars-per-pixel */
"32 32 9 1 ",
"  c #473737",
". c #465739",
"X c #A46E1A",
"o c #9A675A",
"O c #AB7856",
"+ c #77D64C",
"@ c #F6B62E",
"# c #B49144",
"$ c #EACE6D",
/* pixels */
"++++++++++++++++++++++++++++++++",
"++++++++++++++++++++++++++++++++",
"++++++++++++++++++++++++++++++++",
"++++++++++++++++++++++++++++++++",
"++++++++++++++++++++++++++++++++",
"++++++++++++++++++++++++++++++++",
"++++++++++++++  @@@@@@@@++++++++",
"++++++++++++++  @@@@@@@@++++++++",
"++++++++++++++  @@@@@@@@$$++++++",
"++++++++++++++  @@@@@@@@$$++++++",
"++++++++++++++  ####@@$$XX++++++",
"++++++++++++++  ####@@$$XX++++++",
"++++++++++++++  ++++$$XX++++++++",
"++++++++++++++  ++++$$XX++++++++",
"++++++++++++++OO++++XXXX@@@@@@##",
"++++++++++++++OO++++XXXX@@@@@@##",
"++++++++++++++OO++++XXXX####++++",
"++++++++++++++OO++++XXXX####++++",
"++++++++++++++  ++++++++++++++++",
"++++++++++++++  ++++++++++++++++",
"++++++++++++++  ++++++++++++++++",
"++++++++++++++  ++++++++++++++++",
"++++++++....oo##oo++++++++++++++",
"++++++++....oo##oo++++++++++++++",
"++++......oooooo####++++++++++++",
"++++......oooooo####++++++++++++",
"++++++++++..oo..##++++++++++++++",
"++++++++++..oo..##++++++++++++++",
"++++++++++++++++++++++++++++++++",
"++++++++++++++++++++++++++++++++",
"++++++++++++++++++++++++++++++++",
"++++++++++++++++++++++++++++++++"
};
