/* XPM */
static char *_f795c457daf4deab1f65a5effd19829KmIzcFNXprYm0P2v[] = {
/* columns rows colors chars-per-pixel */
"32 32 18 1 ",
"  c #473728",
". c #514928",
"X c #6C4732",
"o c #366760",
"O c #675750",
"+ c #7C6761",
"@ c #8D2B21",
"# c #D33318",
"$ c #9A675A",
"% c #72CE49",
"& c #77D64C",
"* c #B9926B",
"= c #A3E971",
"- c #6075B9",
"; c #838782",
": c #B8A780",
"> c #D8C4B3",
", c #E6E7D3",
/* pixels */
"%%%%..::++,,::++,,++,,::++::%%&&",
"%%%%..::++,,::++,,++,,::++::%%&&",
"%%----++,,::::::::::****,,----&&",
"%%----++,,::::::::::****,,----&&",
"++oo----++>>>>>>>>>>;;;;++oo----",
"++oo----++>>>>>>>>>>;;;;++oo----",
"++XX++OO,,>>>>>>>>>>>>;;,,XX,,>>",
"++XX++OO,,>>>>>>>>>>>>;;,,XX,,>>",
"++,,++OO++,,>>++**,,++,,++++++>>",
"++,,++OO++,,>>++**,,++,,++++++>>",
"++::++OO::::::::::::::::::++,,>>",
"++::++OO::::::::::::::::::++,,>>",
"++##++OO..;;;;;;;;;;;;..::++##>>",
"++##++OO..;;;;;;;;;;;;..::++##>>",
"@@##@@OO::**::::::::::::::@@@@##",
"@@##@@OO::**::::::::::::::@@@@##",
"@@@@##OO::::::++..++::::::@@##@@",
"@@@@##OO::::::++..++::::::@@##@@",
"@@  @@..,,++,,++,,++,,++,,@@  ##",
"@@  @@..,,++,,++,,++,,++,,@@  ##",
"OOOO;;::::::::::::::::**::;;;;**",
"OOOO;;::::::::::::::::**::;;;;**",
"++OO;;****;;;;;;;;;;;;********>>",
"++OO;;****;;;;;;;;;;;;********>>",
"++  ;;::::::::::::::::::::****>>",
"++  ;;::::::::::::::::::::****>>",
"OO++;;::::**::::**::::**::**>>**",
"OO++;;::::**::::**::::**::**>>**",
"++++;;**::::$$    ::::::::**>>>>",
"++++;;**::::$$    ::::::::**>>>>",
"==++;;**::::$$    ::**::::**>>&&",
"==++;;**::::$$    ::**::::**>>&&"
};
