/* XPM */
static char *_2db1d2c3be94b76abe2061f845b6398BZNo8HQajBnK8DV5[] = {
/* columns rows colors chars-per-pixel */
"32 32 2 1 ",
"  c #77D64C",
". c #AAF376",
/* pixels */
"              ..                ",
"              ..                ",
"                ..      ..      ",
"                ..      ..      ",
"                ..      ..  ..  ",
"                ..      ..  ..  ",
"      ..                    ..  ",
"      ..                    ..  ",
"      ..                        ",
"      ..                        ",
"                    ..          ",
"                    ..          ",
"                      ..        ",
"                      ..        ",
"      ..              ..        ",
"      ..              ..        ",
"..      ..                      ",
"..      ..                      ",
"..      ..                      ",
"..      ..                      ",
"                ..              ",
"                ..              ",
"                ..              ",
"                ..              ",
"                        ..      ",
"                        ..      ",
"..                    ..        ",
"..                    ..        ",
"  ..                  ..        ",
"  ..                  ..        ",
"  ..                            ",
"  ..                            "
};
