/* XPM */
static char *_15776b45c5940b188c9e33daa747dccmJYKLXGHb5QuQaQI[] = {
/* columns rows colors chars-per-pixel */
"32 32 22 1 ",
"  c #371708",
". c #272727",
"X c #373737",
"o c #473728",
"O c #473737",
"+ c #6C4732",
"@ c #7C5733",
"# c #675750",
"$ c #846742",
"% c #9A675A",
"& c #AB7856",
"* c #877774",
"= c #72CE49",
"- c #77D64C",
"; c #F6B62E",
": c #B49144",
"> c #DAB676",
", c #AA938C",
"< c #EACD8D",
"1 c #D8C4B3",
"2 c #F5E7AC",
"3 c #F7EDC7",
/* pixels */
"=======@@::====================-",
"=======@@::====================-",
";==<<<<@@@@::::================-",
";==<<<<@@@@::::================-",
"=;;;;;;oo@@@@@@@@$$============-",
"=;;;;;;oo@@@@@@@@$$============-",
"=++++oooooooo@@@@@@@@@@@@======-",
"=++++oooooooo@@@@@@@@@@@@======-",
"2==22oooo..oooooooooooo====%%==-",
"2==22oooo..oooooooooooo====%%==-",
"=22>>ooooXX&&....>>XX========%%-",
"=22>>ooooXX&&....>>XX========%%-",
"=++>>++..XX&&33oo22oo======22%%-",
"=++>>++..XX&&33oo22oo======22%%-",
"=::++++..>>>>>>>>>>::====22==%%-",
"=::++++..>>>>>>>>>>::====22==%%-",
"=;;::@@..&&>>>>&&&&@@==11====  -",
"=;;::@@..&&>>>>&&&&@@==11====  -",
"=;;@@::::oo@@,,####oo**oo====  -",
"=;;@@::::oo@@,,####oo**oo====  -",
"=;;oooooo@@&&::::..**..::::  @@-",
"=;;oooooo@@&&::::..**..::::  @@-",
"===OO##@@##@@::..**..##@@    ==-",
"===OO##@@##@@::..**..##@@    ==-",
"===  ::::oo11oo11  oo==    %%==-",
"===  ::::oo11oo11  oo==    %%==-",
"===;;oooo%%  22OO@@oo    %%====-",
"===;;oooo%%  22OO@@oo    %%====-",
"=======  ##%%%%%%    @@========-",
"=======  ##%%%%%%    @@========-",
"=======oo@@::::oo==============-",
"=======oo@@::::oo==============-"
};
