/* XPM */
static char *_067c6a975384f84b32efad183af451bXhINXr1osbAm0sCw[] = {
/* columns rows colors chars-per-pixel */
"32 32 23 1 ",
"  c #371708",
". c #272727",
"X c #373737",
"o c #473728",
"O c #473737",
"+ c #6C4732",
"@ c #7C5733",
"# c #675750",
"$ c #846742",
"% c #9A675A",
"& c #AB7856",
"* c #877774",
"= c #72CE49",
"- c #77D64C",
"; c #F6B62E",
": c #B49144",
"> c #DAB676",
", c #A3E971",
"< c #AA938C",
"1 c #EACD8D",
"2 c #D8C4B3",
"3 c #F5E7AC",
"4 c #F7EDC7",
/* pixels */
"=======@@::==,,================-",
"=======@@::==,,================-",
";==1111@@@@::::,,======,,======-",
";==1111@@@@::::,,======,,======-",
"=;;;;;;oo@@@@@@@@$$====,,======-",
"=;;;;;;oo@@@@@@@@$$====,,======-",
"=++++oooooooo@@@@@@@@@@@@======-",
"=++++oooooooo@@@@@@@@@@@@======-",
"3==33oooo..oooooooooooo====%%==-",
"3==33oooo..oooooooooooo====%%==-",
"=33>>ooooXX&&....>>XX========%%-",
"=33>>ooooXX&&....>>XX========%%-",
"=++>>++..XX&&44oo33oo,,====33%%-",
"=++>>++..XX&&44oo33oo,,====33%%-",
"=::++++..>>>>>>>>>>::,,==33==%%-",
"=::++++..>>>>>>>>>>::,,==33==%%-",
",;;::@@..&&>>>>&&&&@@==22====  -",
",;;::@@..&&>>>>&&&&@@==22====  -",
",;;@@::::oo@@<<####oo**oo====  -",
",;;@@::::oo@@<<####oo**oo====  -",
"=;;oooooo@@&&::::..**..::::  @@-",
"=;;oooooo@@&&::::..**..::::  @@-",
"===OO##@@##@@::..**..##@@    ==-",
"===OO##@@##@@::..**..##@@    ==-",
"===  ::::oo22oo22  oo==    %%==-",
"===  ::::oo22oo22  oo==    %%==-",
",==;;oooo%%  33OO@@oo    %%====-",
",==;;oooo%%  33OO@@oo    %%====-",
"=,,====  ##%%%%%%    @@========-",
"=,,====  ##%%%%%%    @@========-",
"=,,====oo@@::::oo==============-",
"=,,====oo@@::::oo==============-"
};
