/* XPM */
static char *_38a27640b39412880e793f772db03f1l1fciIi7H3w2mLYl[] = {
/* columns rows colors chars-per-pixel */
"32 32 9 1 ",
"  c #373727",
". c #254828",
"X c #366926",
"o c #514928",
"O c #465739",
"+ c #358B39",
"@ c #34AC42",
"# c #3CC852",
"$ c #72CE49",
/* pixels */
"$$$$$$XX$$$$$$@@$$$$$$$$++@@$$$$",
"$$$$$$XX$$$$$$@@$$$$$$$$++@@$$$$",
"$$$$@@##XX$$$$####$$$$++@@##$$$$",
"$$$$@@##XX$$$$####$$$$++@@##$$$$",
"$$$$####@@$$XX######$$++@@####$$",
"$$$$####@@$$XX######$$++@@####$$",
"$$XX++@@@@XX++++@@##++++++@@@@++",
"$$XX++@@@@XX++++@@##++++++@@@@++",
"XXXX++++@@##XX++@@++OO++@@++@@@@",
"XXXX++++@@##XX++@@++OO++@@++@@@@",
"OOXXXX@@##OOOOXX++++$$@@oo####++",
"OOXXXX@@##OOOOXX++++$$@@oo####++",
"..OOXX++@@##  OOoo++##  ++####$$",
"..OOXX++@@##  OOoo++##  ++####$$",
"$$..  ++++++..  ++++++##@@++@@##",
"$$..  ++++++..  ++++++##@@++@@##",
"$$$$XX++@@@@@@..XX++@@++++++@@++",
"$$$$XX++@@@@@@..XX++@@++++++@@++",
"$$OO##XX++@@##++++XX++@@@@XX++++",
"$$OO##XX++@@##++++XX++@@@@XX++++",
"$$++@@##++++@@####....XX####OO  ",
"$$++@@##++++@@####....XX####OO  ",
"  ++++++OO  ####@@##OO++######$$",
"  ++++++OO  ####@@##OO++######$$",
"XX++@@@@@@XX++@@@@XX++@@++@@##++",
"XX++@@@@@@XX++@@@@XX++@@++@@##++",
"XXXX++@@XXXX++++@@##XX++++@@++$$",
"XXXX++@@XXXX++++@@##XX++++@@++$$",
"OOXX++++OOXXXX@@##OO  XXXX++++@@",
"OOXX++++OOXXXX@@##OO  XXXX++++@@",
"$$OOoooo$$OOXX++@@@@$$  ooOO$$$$",
"$$OOoooo$$OOXX++@@@@$$  ooOO$$$$"
};
